<svg xmlns="http://www.w3.org/2000/svg" width="9.72" height="15.719" viewBox="0 0 9.72 15.719">
  <defs>
    <style>
      .cls-1 {
        fill: #fff;
        fill-rule: evenodd;
      }
    </style>
  </defs>
  <path id="Shape_17_copy_2" data-name="Shape 17 copy 2" class="cls-1" d="M1861.44,360.987l-6.8,6.475a1.5,1.5,0,0,1-2.04,0,1.33,1.33,0,0,1,0-1.94l5.78-5.5-5.82-5.544a1.33,1.33,0,0,1,0-1.94,1.5,1.5,0,0,1,2.04,0l6.8,6.476a0.047,0.047,0,0,0,.02.021,0.04,0.04,0,0,0,.02.018A1.329,1.329,0,0,1,1861.44,360.987Z" transform="translate(-1852.16 -352.156)"/>
</svg>
