<svg xmlns="http://www.w3.org/2000/svg" width="9.719" height="15.719" viewBox="0 0 9.719 15.719">
  <defs>
    <style>
      .cls-1 {
        fill: #fff;
        fill-rule: evenodd;
      }
    </style>
  </defs>
  <path id="Shape_17_copy_2" data-name="Shape 17 copy 2" class="cls-1" d="M58.563,360.987l6.8,6.475a1.491,1.491,0,0,0,2.037,0,1.326,1.326,0,0,0,0-1.94l-5.78-5.5,5.821-5.544a1.327,1.327,0,0,0,0-1.94,1.493,1.493,0,0,0-2.037,0l-6.8,6.476a0.217,0.217,0,0,0-.02.021c-0.006.006-.014,0.011-0.02,0.018A1.324,1.324,0,0,0,58.563,360.987Z" transform="translate(-58.156 -352.156)"/>
</svg>
