<svg xmlns="http://www.w3.org/2000/svg" width="141.938" height="95.94" viewBox="0 0 141.938 95.94">
  <defs>
    <style>
      .cls-1 {
        fill: #dadada;
        fill-rule: evenodd;
      }
    </style>
  </defs>
  <path id="Shape_" data-name="Shape " class="cls-1" d="M611.116,3875.74a6.957,6.957,0,0,1-1.83-.83,9.36,9.36,0,0,1-3.314-3.77c-0.354-.59-0.6-1.25-1.008-1.8-0.347-.47-1.081-0.69-1.361-1.15a9.845,9.845,0,0,1,1.747-.15,6.2,6.2,0,0,1,2.086.36,8.188,8.188,0,0,1,1.949,1.12,20.157,20.157,0,0,1,2.232,2.01,16.917,16.917,0,0,1,1.824,2.24c0.487,0.77.8,1.65,1.211,2.46a5.9,5.9,0,0,1-1.159.1A10.755,10.755,0,0,1,611.116,3875.74Zm14.24,19.64a2.466,2.466,0,0,1-.621-0.67,6.864,6.864,0,0,1-.654-0.75,7.505,7.505,0,0,1-.482-1.11c-0.114-.32-0.16-0.63-0.271-0.97-0.73-.11-1.418-0.17-2.1-0.3a15.962,15.962,0,0,1-2.287-.57,25.064,25.064,0,0,1-2.7-1.22,24.042,24.042,0,0,1-2.585-1.53,6.662,6.662,0,0,1-1.584-1.37,6.532,6.532,0,0,1-.754-1.62,5.618,5.618,0,0,1-.308-1.04c-0.085-.34-0.107-0.67-0.177-1.12,0.168,0.12.335,0.4,0.588,0.57a2.868,2.868,0,0,0,.929.47,9.417,9.417,0,0,0,1.3.2c0.614,0.09,1.225.2,1.837,0.32s1.245,0.23,1.853.37c0.762,0.19,1.514.46,2.256,0.62-0.117-.6-0.2-1.14-0.3-1.69a4.3,4.3,0,0,0-.3-1.41,0.839,0.839,0,0,0-.729-0.25,5.531,5.531,0,0,0-.726.17,10.53,10.53,0,0,1-1.862-.01,15.013,15.013,0,0,1-2.64-.39,14.492,14.492,0,0,1-2.3-.81,10.564,10.564,0,0,1-2.2-1.15,4.268,4.268,0,0,1-1.16-1.4,8.2,8.2,0,0,1-.515-1.68,8.247,8.247,0,0,0,1,.66,2.931,2.931,0,0,0,1.2.23,13.185,13.185,0,0,0,1.648-.12,10.941,10.941,0,0,1,1.717-.11,9.355,9.355,0,0,1,1.6.33,13.447,13.447,0,0,1,1.322.34,4.651,4.651,0,0,0,1.037.23,7.534,7.534,0,0,1-.589-0.88,1.866,1.866,0,0,1-.064-0.8,9.758,9.758,0,0,1,.062-1.17c0.172-1.43.385-2.84,0.511-4.28a5.445,5.445,0,0,0,.048-1.22,5.589,5.589,0,0,0-.258-0.76,6.8,6.8,0,0,1,1.218.72,9.3,9.3,0,0,1,1.3,1.42,4.355,4.355,0,0,1,.894,1.32,12.633,12.633,0,0,1,.551,2.95c0.089,1.11-.058,2.22-0.037,3.31a15.131,15.131,0,0,0,.218,2.08,22.479,22.479,0,0,0,.69,2.65,3.2,3.2,0,0,0,.414.8c0.057-.22.091-0.45,0.126-0.67,0.091-.45.138-0.91,0.248-1.33a21.562,21.562,0,0,1,.69-2.08c0.3-.72.787-1.34,1.037-2.06a4.692,4.692,0,0,0,.224-1.48,5.322,5.322,0,0,0-.215-1.03c0.329,0.28.685,0.55,1.007,0.87a7.822,7.822,0,0,1,1.055,1.18,6.61,6.61,0,0,1,.722,1.69,9.012,9.012,0,0,1,.314,2.06,22.613,22.613,0,0,1,0,3.08,19.115,19.115,0,0,1-.566,3.41c-0.128.54-.481,1.02-0.654,1.55a4.7,4.7,0,0,0-.282,1.23,3.816,3.816,0,0,0,.207,1.4,10.056,10.056,0,0,0,.736,1.43,1.851,1.851,0,0,1,.317.68,0.716,0.716,0,0,1-.2.66A0.777,0.777,0,0,1,625.356,3895.38Zm8.234,15.65a17.173,17.173,0,0,1-1.9,2.7,11.232,11.232,0,0,1-1.435,1.32,3.15,3.15,0,0,0-.728.65,2.836,2.836,0,0,0-.177.86c-0.149.67-.275,1.35-0.425,2.02a3.874,3.874,0,0,1-.246,1,0.8,0.8,0,0,1-.52.37,0.684,0.684,0,0,1-.586-0.14,1.05,1.05,0,0,1-.317-0.67c0-.61.295-1.16,0.312-1.74a2.6,2.6,0,0,0-.211-1.21,1.338,1.338,0,0,0-.556-0.48c-0.547-.39-1.124-0.73-1.644-1.13a18.965,18.965,0,0,1-2.362-1.93,17.953,17.953,0,0,1-2.439-2.94,12.384,12.384,0,0,1-1.279-3.07,9.159,9.159,0,0,1-.224-2.65,7.849,7.849,0,0,1,.443-1.69,14.412,14.412,0,0,1,.7,1.35,8.213,8.213,0,0,0,1.529,1.28c0.915,0.71,1.947,1.29,2.862,2a15.566,15.566,0,0,1,1.8,1.67c0.48,0.51.855,1.1,1.289,1.63a16.907,16.907,0,0,1-.272-1.9c-0.031-.56.146-1.11,0.138-1.67a6.539,6.539,0,0,0-.257-1.98,1.75,1.75,0,0,0-.8-0.89,14.226,14.226,0,0,0-1.636-.41,9.871,9.871,0,0,1-1.664-.85,21.085,21.085,0,0,1-2.389-1.59,22.316,22.316,0,0,1-2.7-2.42,12.871,12.871,0,0,1-1.776-2.56,5.841,5.841,0,0,1-.454-2.07,12.56,12.56,0,0,1,.161-1.66,6.889,6.889,0,0,0,.8,1.04,4.221,4.221,0,0,0,1.268.84c0.609,0.28,1.292.38,1.909,0.62a20.426,20.426,0,0,1,1.982.9,14.331,14.331,0,0,1,2.123,1.2c0.711,0.52,1.307,1.19,1.987,1.78,0.161-.6.3-1.23,0.488-1.82a11.921,11.921,0,0,1,.5-1.46c0.446-.93.894-1.88,1.4-2.78,0.436-.72,1.021-1.35,1.435-2.07a8.135,8.135,0,0,0,.661-1.59,7.233,7.233,0,0,0,.244-0.99c0.281,0.44.614,0.86,0.848,1.31a6.625,6.625,0,0,1,.872,1.92,10.59,10.59,0,0,1,.014,2.97,16.787,16.787,0,0,1-.618,2.98,34.567,34.567,0,0,1-1.406,3.57c-0.311.67-.771,1.25-1.126,1.89a4.553,4.553,0,0,0-.609,1.09,5.126,5.126,0,0,0-.047,1.68,11.516,11.516,0,0,0,.372,1.54c0.044,0.17,0,.49.181,0.49a0.95,0.95,0,0,0,.577-0.42c0.478-.39.961-0.8,1.42-1.22,0.513-.46.982-0.94,1.5-1.42,0.3-.3.6-0.58,0.88-0.89a6.2,6.2,0,0,0,.8-0.97,6.27,6.27,0,0,0,.374-1.07,16.946,16.946,0,0,1,.587,1.64,9.515,9.515,0,0,1,.327,2.59,7.323,7.323,0,0,1-.512,2.29A21.122,21.122,0,0,1,633.59,3911.03Zm1.357,11.42a20.323,20.323,0,0,1-2.206,2.87,15.6,15.6,0,0,1-2.613,2.01c-0.678.48-1.427,0.81-2.1,1.26a2.648,2.648,0,0,0-.722.61,1.1,1.1,0,0,0-.173.53c-0.109.57-.128,1.14-0.259,1.7a13.472,13.472,0,0,1-.541,1.86,0.749,0.749,0,0,1-.433.56,0.768,0.768,0,0,1-.712-0.22,0.9,0.9,0,0,1-.336-0.7,11.369,11.369,0,0,1,.432-1.46,15.154,15.154,0,0,0,.482-2.25,2.119,2.119,0,0,0-.2-1c-0.619-1.44-2.518-2.74-3.41-4.06-1.325-2-2.782-5.59-2.7-7.98a9.233,9.233,0,0,1,1.406-3.73,4.992,4.992,0,0,0,.158,1.25,4.259,4.259,0,0,0,.749,1.21c0.471,0.58,1.1,1.02,1.6,1.56,0.577,0.64,1.15,1.31,1.7,1.99a14.871,14.871,0,0,1,1.325,1.85,9.136,9.136,0,0,1,.586,1.66c0.144,0.42.242,0.85,0.38,1.31,0.37-.43.707-0.96,1.081-1.44a15.322,15.322,0,0,1,1.187-1.37,14.962,14.962,0,0,1,1.662-1.28c0.76-.56,1.582-1.06,2.361-1.59a17.1,17.1,0,0,0,1.9-1.33,8.335,8.335,0,0,0,1.009-1.43,14.773,14.773,0,0,1,.395,2.45,8.158,8.158,0,0,1-.58,2.74A12.174,12.174,0,0,1,634.947,3922.45Zm-0.08,11.53a7.733,7.733,0,0,1-1.009,1.89,18.591,18.591,0,0,1-4.887,4.1,19.511,19.511,0,0,1-6.347,2.08,4.368,4.368,0,0,0-.941.21,0.982,0.982,0,0,0-.295.41c-0.41.54-.777,1.12-1.2,1.63a2.81,2.81,0,0,1-.811.9,0.643,0.643,0,0,1-.669-0.06,0.88,0.88,0,0,1-.2-0.63,1.277,1.277,0,0,1,.2-0.69c0.432-.7,1.076-1.25,1.488-1.98a1.875,1.875,0,0,0,.236-0.93,10.538,10.538,0,0,0-1.028-2.57,20.735,20.735,0,0,1-1.309-5.62,13.858,13.858,0,0,1,.754-6.02,5.8,5.8,0,0,1,2.157-2.25,6.715,6.715,0,0,0-.16,1.37,6.057,6.057,0,0,0,.368,1.86,15.885,15.885,0,0,0,1.178,2.05c0.4,0.74.847,1.47,1.171,2.24a12.538,12.538,0,0,1,.681,2.26,6.151,6.151,0,0,1,.087,1.43,10.709,10.709,0,0,1-.3,1.18,16.407,16.407,0,0,1,1.615-1.45,7.9,7.9,0,0,1,1.8-.95,23.094,23.094,0,0,1,2.769-.91c0.852-.24,1.751-0.34,2.61-0.62a6.221,6.221,0,0,0,2.509-1.64A18.285,18.285,0,0,1,634.867,3933.98Zm-13.893,12.48c0.926-.12,1.868-0.18,2.779-0.21,0.987-.06,1.933-0.01,2.917-0.05a4.5,4.5,0,0,0,1.414-.11,10.136,10.136,0,0,0,1.41-.69,17.584,17.584,0,0,1-.933,1.99,6.481,6.481,0,0,1-1.33,1.7,13.6,13.6,0,0,1-2.534,1.66,19.788,19.788,0,0,1-2.5.97,14.526,14.526,0,0,1-2.064.54c-0.691.11-1.386,0.09-2.075,0.18a14.208,14.208,0,0,0-2.047.29,5.752,5.752,0,0,0-1.656.63,21.568,21.568,0,0,0-1.71,1.43,4.744,4.744,0,0,1-1.052.79,0.664,0.664,0,0,1-.455-0.2,0.945,0.945,0,0,1-.355-0.43,0.875,0.875,0,0,1,.133-0.58,2.3,2.3,0,0,1,.6-0.58,8.633,8.633,0,0,0,1.371-.9,1.268,1.268,0,0,0,.23-0.9,12.148,12.148,0,0,0-.462-1.55,20.709,20.709,0,0,1-.468-2.73,20.964,20.964,0,0,1,.02-3.2,22.015,22.015,0,0,1,.6-3.64,13.6,13.6,0,0,1,1.2-3.16,5.555,5.555,0,0,1,1.394-1.66,13.11,13.11,0,0,1,1.855-1.02,10.088,10.088,0,0,0-.367,1.8,12.37,12.37,0,0,0,.372,1.84c0.193,1.02.45,2.09,0.572,3.12a15.23,15.23,0,0,1,.136,2.32,21.1,21.1,0,0,1-.208,2.44,10.455,10.455,0,0,1-.351,1.23,10.549,10.549,0,0,1,1.755-.97A8.785,8.785,0,0,1,620.974,3946.46Zm-1.791,13.58a12.2,12.2,0,0,1-2.771,1.23,16.157,16.157,0,0,1-2.6.58,17.138,17.138,0,0,1-2.148.19c-0.7.01-1.382-.1-2.075-0.13a17.788,17.788,0,0,0-2.068-.04,5.416,5.416,0,0,0-1.732.37,15.867,15.867,0,0,0-1.921,1.14,4.6,4.6,0,0,1-1.161.59,0.475,0.475,0,0,1-.4-0.26,0.987,0.987,0,0,1-.3-0.49,1.051,1.051,0,0,1,.224-0.55,2.4,2.4,0,0,1,.7-0.47,6.681,6.681,0,0,0,1.478-.68,1.112,1.112,0,0,0,.363-0.85,11.458,11.458,0,0,0-.181-1.58,22.681,22.681,0,0,1-.039-2.78,18.506,18.506,0,0,1,.55-3.16,21.524,21.524,0,0,1,1.164-3.51,14.142,14.142,0,0,1,1.7-2.92,5.729,5.729,0,0,1,1.638-1.42,12.277,12.277,0,0,1,2-.72,9.454,9.454,0,0,0-.639,1.74,8.588,8.588,0,0,0,.067,1.86c0.023,1.07.1,2.12,0.073,3.18a15.791,15.791,0,0,1-.257,2.31,17.262,17.262,0,0,1-.6,2.38,8.643,8.643,0,0,1-.547,1.15,11.007,11.007,0,0,1,1.895-.67,8.6,8.6,0,0,1,1.827-.07,26.781,26.781,0,0,1,2.806.24c0.962,0.1,1.885.31,2.845,0.43a7.672,7.672,0,0,0,1.428.1c0.524-.08,1.028-0.33,1.511-0.44a21.173,21.173,0,0,1-1.23,1.8A7.4,7.4,0,0,1,619.183,3960.04Zm-98.3-84.3a6.965,6.965,0,0,0,1.829-.83,12.39,12.39,0,0,0,2.053-1.82,12.078,12.078,0,0,0,1.262-1.95c0.353-.58.6-1.25,1.007-1.8,0.347-.46,1.082-0.69,1.361-1.15a9.837,9.837,0,0,0-1.747-.15,6.46,6.46,0,0,0-2.086.36,8.2,8.2,0,0,0-1.948,1.13,19.2,19.2,0,0,0-2.233,2,17.588,17.588,0,0,0-1.824,2.24c-0.487.77-.8,1.65-1.211,2.46a5.228,5.228,0,0,0,1.159.1A10.764,10.764,0,0,0,520.886,3875.74Zm-14.241,19.64a2.462,2.462,0,0,0,.62-0.67,6.656,6.656,0,0,0,.654-0.75,7.075,7.075,0,0,0,.482-1.11c0.115-.32.161-0.63,0.271-0.97,0.73-.11,1.418-0.17,2.1-0.29a15.989,15.989,0,0,0,2.287-.58,25.152,25.152,0,0,0,2.7-1.22,25.727,25.727,0,0,0,2.585-1.52,6.917,6.917,0,0,0,1.584-1.38,6.5,6.5,0,0,0,.754-1.62,5.4,5.4,0,0,0,.308-1.04c0.086-.34.108-0.67,0.178-1.12-0.169.12-.336,0.4-0.589,0.58a2.835,2.835,0,0,1-.929.46,9.417,9.417,0,0,1-1.3.2c-0.614.09-1.225,0.21-1.837,0.32s-1.245.24-1.853,0.37c-0.762.19-1.514,0.46-2.257,0.62,0.118-.59.2-1.14,0.3-1.69a4.324,4.324,0,0,1,.3-1.41,0.869,0.869,0,0,1,.729-0.25c0.254-.01.491,0.16,0.726,0.17a9.653,9.653,0,0,0,1.862,0,16.035,16.035,0,0,0,2.64-.4,14.457,14.457,0,0,0,2.3-.81,11,11,0,0,0,2.2-1.14,4.4,4.4,0,0,0,1.161-1.41,8.235,8.235,0,0,0,.514-1.67,9.529,9.529,0,0,1-.995.66,3.093,3.093,0,0,1-1.2.22,13.2,13.2,0,0,1-1.649-.12,10.933,10.933,0,0,0-1.717-.11,10.444,10.444,0,0,0-1.6.33c-0.451.1-.9,0.21-1.322,0.34a4.152,4.152,0,0,1-1.037.23,6.778,6.778,0,0,0,.589-0.88,1.882,1.882,0,0,0,.064-0.8,9.758,9.758,0,0,0-.062-1.17c-0.172-1.43-.386-2.84-0.511-4.28a5.445,5.445,0,0,1-.048-1.22,5.589,5.589,0,0,1,.258-0.76,6.8,6.8,0,0,0-1.218.72,9.366,9.366,0,0,0-1.3,1.43,4.294,4.294,0,0,0-.894,1.31,12.619,12.619,0,0,0-.551,2.96c-0.089,1.1.057,2.21,0.036,3.31a14.677,14.677,0,0,1-.217,2.07,22.292,22.292,0,0,1-.691,2.65,3.2,3.2,0,0,1-.413.8c-0.057-.22-0.092-0.45-0.126-0.67-0.092-.45-0.138-0.91-0.249-1.33-0.2-.71-0.423-1.4-0.69-2.08-0.3-.72-0.786-1.34-1.036-2.06a4.693,4.693,0,0,1-.225-1.48,5.322,5.322,0,0,1,.215-1.03c-0.329.29-.684,0.55-1.007,0.87a7.762,7.762,0,0,0-1.054,1.18,6.575,6.575,0,0,0-.722,1.69,8.959,8.959,0,0,0-.315,2.06,22.613,22.613,0,0,0,0,3.08,19.284,19.284,0,0,0,.566,3.42c0.127,0.53.481,1.01,0.654,1.54a4.7,4.7,0,0,1,.281,1.23,3.836,3.836,0,0,1-.206,1.4,10.161,10.161,0,0,1-.736,1.43,1.851,1.851,0,0,0-.317.68,0.714,0.714,0,0,0,.195.66A0.777,0.777,0,0,0,506.645,3895.38Zm-8.235,15.66a18.154,18.154,0,0,0,1.9,2.7,11.156,11.156,0,0,0,1.435,1.31,3.4,3.4,0,0,1,.728.65,2.836,2.836,0,0,1,.177.86c0.149,0.67.275,1.35,0.425,2.02a3.683,3.683,0,0,0,.246,1,0.773,0.773,0,0,0,.52.37,0.683,0.683,0,0,0,.586-0.14,1.028,1.028,0,0,0,.318-0.67c0-.6-0.3-1.16-0.313-1.74a2.615,2.615,0,0,1,.211-1.21,1.345,1.345,0,0,1,.556-0.48c0.547-.38,1.124-0.72,1.645-1.13a19.029,19.029,0,0,0,2.361-1.93,17.5,17.5,0,0,0,2.439-2.94,12.28,12.28,0,0,0,1.28-3.06,9.293,9.293,0,0,0,.224-2.66,7.849,7.849,0,0,0-.443-1.69,14.339,14.339,0,0,0-.7,1.36,8.572,8.572,0,0,1-1.53,1.27c-0.915.71-1.947,1.29-2.862,2.01a14.719,14.719,0,0,0-1.8,1.66c-0.48.51-.854,1.1-1.288,1.63a16.9,16.9,0,0,0,.271-1.9c0.031-.56-0.145-1.11-0.138-1.67a6.644,6.644,0,0,1,.257-1.98,1.759,1.759,0,0,1,.8-0.89,14.191,14.191,0,0,1,1.637-.41,8.6,8.6,0,0,0,1.663-.85,19.755,19.755,0,0,0,2.39-1.59,21.505,21.505,0,0,0,2.7-2.42,12.589,12.589,0,0,0,1.776-2.56,5.836,5.836,0,0,0,.454-2.06,12.713,12.713,0,0,0-.161-1.67,6.954,6.954,0,0,1-.8,1.05,4.635,4.635,0,0,1-1.268.84c-0.609.27-1.293,0.38-1.909,0.61a20.21,20.21,0,0,0-1.982.9,15.288,15.288,0,0,0-2.123,1.2c-0.712.52-1.308,1.19-1.988,1.78-0.161-.6-0.3-1.23-0.487-1.82a11.761,11.761,0,0,0-.5-1.46c-0.445-.93-0.893-1.88-1.4-2.77-0.436-.73-1.021-1.36-1.435-2.08a8.135,8.135,0,0,1-.661-1.59,7.383,7.383,0,0,1-.244-0.99c-0.281.44-.614,0.86-0.848,1.31a6.747,6.747,0,0,0-.872,1.92,10.591,10.591,0,0,0-.014,2.97,16.787,16.787,0,0,0,.618,2.98,34.35,34.35,0,0,0,1.407,3.57c0.31,0.67.77,1.25,1.125,1.89a4.519,4.519,0,0,1,.609,1.09,5.179,5.179,0,0,1,.047,1.69,11.225,11.225,0,0,1-.372,1.53c-0.044.17,0,.49-0.181,0.5a1.012,1.012,0,0,1-.577-0.43c-0.478-.39-0.961-0.8-1.42-1.22-0.513-.45-0.982-0.94-1.5-1.42-0.3-.3-0.6-0.58-0.88-0.89a6.126,6.126,0,0,1-.8-0.96,6.787,6.787,0,0,1-.374-1.08,16.946,16.946,0,0,0-.587,1.64,9.538,9.538,0,0,0-.327,2.6,7.263,7.263,0,0,0,.512,2.28A21.7,21.7,0,0,0,498.41,3911.04Zm-1.357,11.41a20.323,20.323,0,0,0,2.206,2.87,15.638,15.638,0,0,0,2.613,2.01c0.678,0.48,1.427.81,2.1,1.26a2.662,2.662,0,0,1,.722.61,1.155,1.155,0,0,1,.173.53c0.108,0.57.128,1.14,0.259,1.7a14.022,14.022,0,0,0,.541,1.87,0.638,0.638,0,0,0,1.145.33,0.9,0.9,0,0,0,.336-0.7,11.7,11.7,0,0,0-.433-1.46,15.3,15.3,0,0,1-.481-2.24,2.123,2.123,0,0,1,.2-1.01c0.618-1.43,2.517-2.74,3.41-4.06,1.325-2,2.782-5.58,2.7-7.98a9.288,9.288,0,0,0-1.406-3.73,4.992,4.992,0,0,1-.158,1.25,4.146,4.146,0,0,1-.749,1.21c-0.471.58-1.1,1.02-1.6,1.56-0.577.64-1.151,1.31-1.7,1.99a15.426,15.426,0,0,0-1.325,1.85,8.987,8.987,0,0,0-.586,1.66c-0.145.42-.243,0.85-0.381,1.31-0.37-.43-0.706-0.96-1.081-1.43a14.312,14.312,0,0,0-1.186-1.38,15.066,15.066,0,0,0-1.663-1.28c-0.76-.55-1.582-1.06-2.362-1.59a15.936,15.936,0,0,1-1.9-1.33,8.26,8.26,0,0,1-1.009-1.42,14.492,14.492,0,0,0-.395,2.44,8.082,8.082,0,0,0,.58,2.74A12.127,12.127,0,0,0,497.053,3922.45Zm0.08,11.53a7.733,7.733,0,0,0,1.009,1.89,18.591,18.591,0,0,0,4.887,4.1,19.519,19.519,0,0,0,6.347,2.08,4.377,4.377,0,0,1,.942.21,0.982,0.982,0,0,1,.3.41c0.41,0.55.777,1.12,1.2,1.63a2.709,2.709,0,0,0,.811.9,0.643,0.643,0,0,0,.669-0.06,0.884,0.884,0,0,0,.2-0.63,1.277,1.277,0,0,0-.2-0.69c-0.433-.7-1.076-1.25-1.489-1.97a1.951,1.951,0,0,1-.235-0.94,10.538,10.538,0,0,1,1.028-2.57,20.649,20.649,0,0,0,1.309-5.62,13.858,13.858,0,0,0-.754-6.02,5.861,5.861,0,0,0-2.158-2.25,6.872,6.872,0,0,1,.161,1.37,6.088,6.088,0,0,1-.369,1.86,15.763,15.763,0,0,1-1.177,2.05c-0.4.74-.847,1.48-1.171,2.24a12.789,12.789,0,0,0-.682,2.26,6.151,6.151,0,0,0-.087,1.43,10.71,10.71,0,0,0,.3,1.18,17.664,17.664,0,0,0-1.616-1.45,7.9,7.9,0,0,0-1.8-.95,23.079,23.079,0,0,0-2.768-.91c-0.853-.24-1.752-0.33-2.611-0.62a8.09,8.09,0,0,1-1.62-.85,8.673,8.673,0,0,1-.889-0.79A18.285,18.285,0,0,0,497.133,3933.98Zm13.894,12.48c-0.926-.12-1.868-0.18-2.779-0.21-0.987-.06-1.934-0.01-2.918-0.04a4.826,4.826,0,0,1-1.414-.12,10.136,10.136,0,0,1-1.41-.69,17.759,17.759,0,0,0,.933,1.99,6.481,6.481,0,0,0,1.33,1.7,13.116,13.116,0,0,0,2.534,1.66,19.8,19.8,0,0,0,2.5.97,14.513,14.513,0,0,0,2.063.54c0.691,0.11,1.387.1,2.076,0.18a14.208,14.208,0,0,1,2.047.29,6.058,6.058,0,0,1,1.656.63,21.389,21.389,0,0,1,1.71,1.43,4.84,4.84,0,0,0,1.052.8,0.678,0.678,0,0,0,.455-0.21,0.945,0.945,0,0,0,.355-0.43,0.869,0.869,0,0,0-.133-0.58,2.469,2.469,0,0,0-.6-0.58,8.633,8.633,0,0,1-1.371-.9,1.273,1.273,0,0,1-.23-0.9,12.312,12.312,0,0,1,.462-1.55,20.43,20.43,0,0,0,.468-2.73,20.845,20.845,0,0,0-.02-3.2,22.015,22.015,0,0,0-.6-3.64,13.354,13.354,0,0,0-1.2-3.15,5.472,5.472,0,0,0-1.394-1.67,13.11,13.11,0,0,0-1.855-1.02,10.088,10.088,0,0,1,.367,1.8,12.37,12.37,0,0,1-.372,1.84c-0.193,1.02-.45,2.09-0.572,3.12a15.23,15.23,0,0,0-.136,2.32,21.323,21.323,0,0,0,.207,2.44,10.65,10.65,0,0,0,.352,1.23,12.224,12.224,0,0,0-1.755-.97A8.785,8.785,0,0,0,511.027,3946.46Zm1.79,13.58a12.212,12.212,0,0,0,2.772,1.23,15.155,15.155,0,0,0,2.6.58,17.138,17.138,0,0,0,2.148.19c0.7,0.01,1.382-.1,2.076-0.13a17.784,17.784,0,0,1,2.068-.04,5.7,5.7,0,0,1,1.732.37,14.738,14.738,0,0,1,1.921,1.15,5.389,5.389,0,0,0,1.16.59,0.508,0.508,0,0,0,.4-0.27,0.638,0.638,0,0,0,.076-1.03,2.45,2.45,0,0,0-.7-0.48,6.71,6.71,0,0,1-1.479-.68,1.093,1.093,0,0,1-.362-0.85,11.314,11.314,0,0,1,.18-1.57,22.846,22.846,0,0,0,.04-2.79,18.507,18.507,0,0,0-.551-3.16,21.524,21.524,0,0,0-1.164-3.51,14.1,14.1,0,0,0-1.7-2.92,5.7,5.7,0,0,0-1.638-1.42,13.282,13.282,0,0,0-2-.72,9.524,9.524,0,0,1,.638,1.74,8.588,8.588,0,0,1-.067,1.86c-0.023,1.07-.1,2.12-0.073,3.18a15.509,15.509,0,0,0,.258,2.31,17.117,17.117,0,0,0,.6,2.38,8.2,8.2,0,0,0,.547,1.15,10.149,10.149,0,0,0-1.895-.66,7.458,7.458,0,0,0-1.827-.07,26.747,26.747,0,0,0-2.806.23c-0.962.1-1.885,0.31-2.845,0.43a7.672,7.672,0,0,1-1.428.1c-0.524-.08-1.028-0.33-1.512-0.44a21.179,21.179,0,0,0,1.231,1.8A7.391,7.391,0,0,0,512.817,3960.04Z" transform="translate(-495.031 -3868.03)"/>
</svg>
